<?xml version="1.0" standalone="no"?>
<!DOCTYPE svg PUBLIC "-//W3C//DTD SVG 20010904//EN"
 "http://www.w3.org/TR/2001/REC-SVG-20010904/DTD/svg10.dtd">
<svg version="1.0" xmlns="http://www.w3.org/2000/svg"
 width="1024.000000pt" height="1024.000000pt" viewBox="0 0 1024.000000 1024.000000"
 preserveAspectRatio="xMidYMid meet">

<g transform="translate(0.000000,1024.000000) scale(0.100000,-0.100000)"
fill="#000000" stroke="none">
<path d="M4773 10210 c-73 -3 -135 -9 -139 -13 -6 -5 2 -100 41 -487 7 -74 12
-136 10 -138 -1 -1 -39 -9 -85 -16 -58 -9 -83 -10 -85 -2 -3 10 -49 424 -61
546 -10 95 0 88 -113 74 -104 -14 -253 -38 -331 -55 l-46 -10 68 -306 c37
-168 67 -307 66 -308 -2 -1 -39 -13 -83 -27 l-80 -25 -8 21 c-9 24 -94 361
-127 509 -12 53 -27 97 -32 97 -6 0 -35 -7 -66 -16 -161 -44 -308 -86 -319
-89 -8 -3 0 -37 26 -112 36 -100 170 -457 185 -494 6 -14 -8 -23 -74 -48 -89
-34 -100 -36 -100 -21 0 28 -225 610 -236 610 -17 0 -211 -79 -322 -131 l-93
-44 76 -150 c42 -82 108 -209 146 -282 38 -72 69 -134 69 -137 0 -7 -135 -76
-149 -76 -5 0 -50 78 -101 173 -132 246 -211 387 -216 387 -10 0 -188 -105
-292 -173 l-112 -73 78 -114 c43 -63 125 -182 181 -264 56 -82 103 -153 104
-157 1 -4 -30 -30 -69 -57 l-72 -49 -72 106 c-40 58 -124 181 -188 273 l-115
167 -31 -22 c-68 -48 -275 -222 -339 -284 l-68 -67 232 -232 233 -233 -63 -62
-62 -62 -182 180 c-100 99 -207 202 -237 231 l-55 51 -59 -57 c-51 -48 -186
-194 -249 -268 -17 -21 -16 -22 160 -154 98 -73 217 -164 266 -202 l87 -70
-42 -60 c-24 -33 -48 -63 -55 -65 -7 -3 -30 8 -50 25 -110 87 -496 361 -502
357 -13 -7 -155 -213 -219 -317 l-60 -97 289 -162 289 -162 -20 -33 c-11 -19
-30 -51 -42 -71 -12 -21 -23 -40 -24 -41 -1 -2 -131 66 -287 152 -157 86 -287
156 -290 156 -18 0 -244 -446 -233 -458 3 -3 137 -56 297 -118 160 -62 293
-115 296 -118 10 -9 -49 -167 -61 -163 -6 3 -83 33 -171 67 -88 33 -220 84
-293 112 -79 30 -136 48 -141 42 -12 -13 -143 -415 -137 -421 3 -3 112 -36
243 -74 131 -38 269 -78 307 -90 l68 -20 -6 -40 c-3 -22 -11 -62 -17 -90 -10
-45 -13 -49 -32 -43 -12 4 -156 47 -320 94 l-297 87 -10 -36 c-27 -103 -92
-470 -84 -479 1 -2 85 -14 186 -27 331 -43 436 -58 447 -64 8 -5 8 -30 1 -86
-5 -43 -11 -80 -13 -81 -2 -3 -128 13 -514 64 l-131 18 -6 -41 c-14 -89 -36
-355 -36 -422 l0 -73 415 0 415 0 0 -85 0 -85 -415 0 -415 0 0 -37 c0 -120 29
-516 39 -532 5 -7 95 5 291 39 157 26 306 51 331 55 l46 7 12 -87 c7 -47 12
-88 10 -89 -6 -5 -601 -96 -626 -96 -12 0 -25 -5 -28 -10 -10 -15 90 -478 106
-495 3 -2 144 38 315 90 170 52 315 96 323 98 17 3 75 -155 59 -164 -5 -3
-110 -37 -231 -74 -261 -80 -411 -126 -414 -129 -6 -6 150 -432 163 -445 5 -6
47 12 314 137 135 62 260 120 278 128 l33 15 26 -58 c14 -32 29 -68 34 -80 8
-21 -7 -30 -244 -146 -139 -69 -276 -135 -305 -147 -28 -12 -52 -26 -52 -31 0
-23 218 -430 246 -458 2 -2 12 3 21 11 10 9 136 95 279 191 l262 176 52 -71
c28 -39 48 -74 43 -78 -4 -4 -96 -67 -203 -140 -177 -121 -321 -222 -344 -241
-7 -6 238 -354 283 -401 15 -15 24 -9 126 79 61 53 142 123 181 157 39 33 106
92 148 130 l77 70 62 -63 62 -62 -52 -47 c-123 -112 -411 -369 -442 -395 l-34
-28 184 -185 c101 -101 187 -183 190 -182 3 2 50 55 104 118 276 325 350 410
356 408 3 -2 33 -28 66 -58 l60 -55 -126 -151 c-69 -83 -170 -203 -224 -267
-53 -63 -97 -119 -97 -124 0 -11 367 -283 382 -283 3 0 36 48 74 107 183 286
303 468 311 470 5 2 33 -15 62 -37 30 -22 61 -44 69 -49 13 -7 -7 -44 -113
-207 -118 -183 -196 -305 -232 -362 -7 -12 -12 -26 -9 -31 7 -11 428 -251 441
-251 3 0 28 46 56 103 60 119 245 472 266 505 l13 22 73 -36 c39 -20 73 -37
75 -39 1 -1 -67 -142 -153 -312 -85 -170 -155 -314 -155 -319 0 -12 443 -183
452 -175 4 4 55 148 114 321 58 173 107 317 110 319 3 3 152 -47 162 -54 2 -2
-19 -70 -47 -151 -98 -293 -159 -494 -151 -499 13 -8 353 -93 401 -100 l46 -7
23 122 c27 148 108 531 112 535 2 2 39 -5 83 -14 57 -13 79 -22 78 -32 -1 -8
-31 -155 -67 -327 -63 -308 -63 -312 -42 -317 37 -8 340 -45 367 -45 l25 0 29
326 29 326 75 -7 c42 -4 79 -10 83 -14 4 -3 -1 -103 -12 -221 -31 -339 -36
-421 -29 -426 15 -9 389 -17 389 -8 0 7 -17 306 -43 767 l-3 57 62 0 c34 0 69
3 77 6 12 4 16 -10 21 -78 19 -288 27 -423 33 -577 l6 -173 96 6 c158 10 450
42 458 49 3 4 -39 332 -73 558 l-5 37 48 6 c26 4 65 9 86 12 27 4 37 2 37 -8
0 -19 82 -582 85 -586 2 -2 54 7 117 19 62 13 151 23 198 23 l85 1 3 292 2
293 75 0 75 0 0 -295 0 -295 23 -4 c12 -3 120 -7 240 -9 l217 -4 0 293 0 294
80 0 80 0 0 -295 0 -294 230 -3 230 -3 0 293 0 292 80 0 80 0 0 -295 0 -295
235 0 235 0 0 295 0 295 75 0 75 0 0 -300 0 -300 233 0 c127 0 256 3 285 6
l52 7 0 293 0 294 80 0 80 0 0 -300 0 -300 268 2 267 3 3 298 2 297 75 0 75 0
0 -300 0 -300 175 0 175 0 0 925 0 925 -517 1 c-618 1 -623 1 -623 10 0 4 35
49 78 100 91 109 152 189 152 199 0 7 -18 20 -302 217 l-207 144 51 70 c28 38
56 68 62 66 6 -3 56 -36 111 -75 55 -38 165 -115 245 -170 l145 -101 17 22
c55 70 246 404 236 411 -2 2 -127 62 -278 135 -151 73 -276 134 -278 135 -3 4
69 156 74 156 8 0 311 -143 439 -207 71 -36 131 -61 132 -57 2 5 46 114 98
243 52 129 94 235 92 237 -1 1 -65 21 -142 44 -77 23 -215 66 -307 96 l-168
55 30 81 c16 45 31 83 33 84 2 2 138 -41 302 -96 164 -55 299 -99 300 -97 7
11 71 269 94 375 19 91 25 135 17 137 -6 2 -81 15 -166 30 -215 38 -452 83
-457 89 -4 4 24 166 30 172 1 2 124 -22 272 -51 149 -30 290 -56 314 -57 49
-3 46 -10 56 102 4 36 8 72 11 80 3 13 34 466 34 508 0 9 -97 12 -450 12
l-450 0 0 85 0 85 445 0 445 0 -6 73 c-12 157 -36 359 -59 505 -14 84 -25 155
-25 157 0 3 -8 5 -17 5 -16 0 -276 -55 -474 -100 -130 -30 -122 -34 -142 66
-10 48 -17 87 -15 89 2 1 138 29 303 63 l300 60 -1 28 c-2 34 -102 425 -114
444 -7 11 -70 -8 -287 -85 -153 -54 -283 -100 -289 -102 -13 -5 -70 154 -60
164 5 5 129 51 464 170 56 20 102 41 102 47 0 19 -65 172 -131 306 l-67 138
-249 -125 c-136 -69 -259 -132 -271 -140 -13 -8 -25 -13 -27 -11 -10 10 -74
161 -71 167 3 3 122 64 265 136 144 71 261 133 261 137 0 22 -267 439 -291
453 -4 3 -112 -67 -239 -156 -128 -88 -238 -158 -245 -155 -12 4 -95 123 -95
135 0 3 104 78 230 166 127 88 230 163 230 167 0 22 -342 398 -362 398 -13 0
-69 -49 -337 -294 l-203 -187 -54 58 c-29 32 -53 63 -54 69 0 6 64 71 143 145
78 73 193 182 256 242 l115 110 -70 64 c-38 35 -124 111 -192 168 l-123 105
-181 -218 c-99 -119 -188 -225 -198 -236 -17 -17 -20 -16 -88 35 l-71 52 107
131 c59 72 142 174 185 226 43 52 83 103 88 112 7 14 -2 25 -54 62 -74 53
-274 176 -285 176 -4 0 -77 -111 -162 -246 -85 -135 -158 -248 -162 -250 -14
-9 -150 86 -145 100 3 7 36 62 73 122 113 184 226 375 222 378 -43 37 -381
216 -406 216 -4 0 -17 -21 -28 -47 -12 -27 -65 -151 -119 -278 -54 -126 -99
-231 -101 -233 -2 -3 -148 63 -161 73 -1 0 27 71 63 156 169 398 173 409 155
418 -66 35 -378 148 -386 140 -3 -4 -126 -387 -166 -519 -13 -41 -24 -76 -24
-77 -2 -6 -165 51 -165 57 0 9 117 421 151 529 10 35 17 66 15 68 -13 14 -390
103 -434 103 -16 0 -26 -39 -77 -307 -32 -170 -59 -311 -61 -314 -3 -5 -162
20 -172 27 -2 1 21 141 50 312 29 171 50 313 48 315 -5 5 -207 22 -381 33
l-107 6 -6 -48 c-3 -27 -10 -137 -16 -244 -17 -326 -20 -372 -26 -443 l-6 -68
-82 3 -81 3 1 45 c5 152 17 402 24 505 5 66 10 150 10 188 l0 67 -122 -2 c-68
-1 -183 -4 -255 -8z m607 -2115 c699 -78 1221 -339 1716 -857 115 -120 201
-236 307 -413 144 -237 232 -434 313 -695 46 -149 98 -386 109 -500 4 -36 9
-76 11 -89 12 -83 15 -315 5 -441 -36 -437 -135 -786 -335 -1175 -147 -287
-249 -426 -489 -672 -339 -347 -639 -541 -1035 -672 -419 -139 -826 -171
-1322 -105 -499 66 -1039 313 -1429 653 -166 144 -369 391 -496 600 -233 387
-360 759 -416 1223 -18 152 -6 610 20 770 123 756 519 1420 1111 1862 333 249
647 390 1050 472 258 52 615 68 880 39z m3586 -5855 l102 -106 -56 -68 -55
-68 -151 153 c-83 85 -203 208 -265 273 l-115 120 65 58 64 58 155 -158 c85
-86 201 -204 256 -262z"/>
</g>
</svg>
