<svg width="248" height="71" viewBox="0 0 248 71" fill="none" xmlns="http://www.w3.org/2000/svg">
<path d="M45.2833 69.6243H36.2635V38.6117L36.0869 38.5693C35.9102 38.9239 35.7306 39.277 35.5585 39.6302C32.6457 45.662 26.1091 58.4396 26.1091 58.4396C26.1091 58.4396 21.2639 58.4744 19.0097 58.4744C15.7866 51.8757 12.5649 45.2791 9.34475 38.6845L9.17112 38.7314V69.5212L0.133346 69.6243C0.133346 69.6243 -0.0777069 26.2646 0.094427 25.2052H0.974556C4.50555 25.2052 8.03803 25.2249 11.5705 25.1886C12.2665 25.181 12.6482 25.3841 12.9775 26.0282C16.0355 32.01 19.1324 37.9737 22.2174 43.9434C22.3341 44.1662 22.4599 44.3844 22.632 44.7012C22.7936 44.4405 22.9194 44.2662 23.0167 44.0768C26.0941 38.0146 29.1666 31.9524 32.2341 25.8903C32.487 25.3856 32.7744 25.1961 33.3372 25.1992C37.0463 25.2249 40.7569 25.2128 44.4675 25.2128H45.1995C45.3716 25.8463 45.2833 69.6243 45.2833 69.6243Z" fill="black"/>
<path d="M77.6701 63.9637L80.9481 60.7614L79.8719 59.8899L76.7196 62.9559C75.665 61.7897 74.7376 60.5118 73.9535 59.1443L76.2526 57.803L75.7901 56.9573L73.479 58.2334C72.699 56.7857 72.0958 55.2472 71.6828 53.6519L74.2274 52.9745C74.1571 52.6456 74.1002 52.3789 74.0269 52.0318L71.4493 52.6502C71.0674 51.1295 70.8932 49.563 70.9314 47.9944H75.3635V46.5925H70.9434C70.9434 44.9391 71.2428 43.4463 71.626 41.861L74.1705 42.5597L74.4789 41.6504L71.9253 40.8714C72.3744 39.2801 73.039 37.8403 73.8592 36.3475L76.1344 37.7115L76.6478 36.9052C75.8994 36.4263 75.1749 35.9686 74.3906 35.4715C75.2292 34.1343 76.2045 32.8903 77.3004 31.7599L80.4332 35.0441L81.4256 34.0908L78.3003 30.7945C79.453 29.7301 80.7139 28.7923 82.0618 27.9968L83.3835 30.3126L84.2202 29.8579L82.9628 27.5103C84.3928 26.7224 85.9143 26.1186 87.4922 25.7129C87.7152 26.5828 87.9233 27.3937 88.1508 28.2893L89.0788 28.0499C88.8738 27.1739 88.6822 26.3585 88.4801 25.4871C89.9766 25.0997 91.5174 24.9162 93.0619 24.9415V29.4245H94.4509V24.9703C96.0974 24.9597 97.5673 25.2734 99.1225 25.6538C98.8935 26.5116 98.6734 27.3209 98.4384 28.209L99.3365 28.5121C99.5895 27.6604 99.829 26.8572 100.092 25.969C101.664 26.4101 103.086 27.0951 104.562 27.9211L103.227 30.1944L104.031 30.7263C104.489 29.9761 104.929 29.2623 105.42 28.453C106.744 29.2944 107.97 30.2842 109.075 31.4038L105.858 34.5485L106.792 35.5458C107.886 34.4849 108.946 33.471 110.045 32.4101C111.096 33.5761 112.021 34.8535 112.802 36.2202L110.543 37.516L110.97 38.3707L113.285 37.1295C114.053 38.5723 114.65 40.102 115.064 41.6867L112.549 42.3642C112.619 42.6673 112.685 42.9492 112.764 43.2917L115.227 42.7188C115.658 43.8024 115.924 46.2228 115.737 47.3594H111.396V48.7098L115.787 48.7992C115.8 50.3996 115.498 51.8894 115.111 53.467L112.601 52.7744C112.51 53.0776 112.425 53.3534 112.32 53.6913L114.815 54.4597C114.352 56.0374 113.703 57.5527 112.881 58.973L110.648 57.6287L110.159 58.3865L112.444 60.2188H122.173V69.5394H119.999L119.951 65.9869L118.925 66.0082L118.957 69.5379H114.281C114.243 67.9117 114.29 66.281 114.254 64.6063H112.907V69.5485H108.177V66.0445H107.223V69.4333L102.297 69.5272V66.0627H101.309V69.5485H99.2677L98.627 67.0872L97.711 67.2691C97.9071 68.1572 98.0912 68.9923 98.2738 69.8167C97.2155 70.2062 95.0257 70.479 93.7145 70.3835V65.9081H92.3569C92.3299 67.3691 92.303 68.824 92.276 70.3608C90.7074 70.3775 89.236 70.0759 87.6628 69.6894C87.8904 68.8271 88.1119 67.9996 88.3409 67.113L87.4548 66.8099L86.672 69.3666C85.1112 68.9023 83.6119 68.2478 82.207 67.4176L83.5541 65.1291L82.7368 64.6002L81.3583 66.8963C80.0295 66.0541 78.7931 65.0711 77.6701 63.9637ZM93.3867 34.3849C86.1406 34.3849 80.2312 40.3515 80.2341 47.6671C80.2371 54.9826 86.163 60.9766 93.3837 60.966C100.604 60.9553 106.484 54.9917 106.494 47.7125C106.509 40.3743 100.615 34.3879 93.3897 34.3849H93.3867ZM105.402 61.3069L108.442 64.4896L109.473 63.5712L106.33 60.2718L105.402 61.3069Z" fill="black"/>
<path d="M246.481 37.7297L237.135 36.3657C237.053 36.1232 236.967 35.8868 236.894 35.6473C236.211 33.4558 234.774 32.0449 232.582 31.4826C230.46 30.9129 228.236 30.861 226.091 31.331C225.116 31.5357 224.202 31.9697 223.423 32.598C222.736 33.1816 222.238 33.9598 221.992 34.8324C221.746 35.7051 221.764 36.6323 222.042 37.4948C222.156 37.8524 222.337 38.1838 222.578 38.4699C222.818 38.756 223.112 38.9912 223.442 39.1619C224.49 39.6862 225.538 40.2227 226.653 40.5501C229.582 41.3958 232.54 42.1429 235.494 42.8962C237.569 43.4251 239.609 44.0358 241.507 45.0603C244.225 46.5274 246.349 48.5688 247.33 51.5984C248.906 56.4739 247.809 62.8877 242.414 66.6129C240.148 68.1769 237.624 69.0741 234.938 69.5288C230.957 70.2017 226.991 70.1638 223.065 69.156C220.267 68.4376 217.711 67.2236 215.552 65.2413C213.157 63.0468 211.767 60.3067 211.262 57.0998C211.113 56.1678 211.078 55.2205 210.981 54.1733C211.5 54.24 211.918 54.2839 212.328 54.3506C214.81 54.7538 217.292 55.166 219.775 55.5631C220.127 55.6191 220.36 55.6919 220.453 56.1268C221.194 59.5611 223.464 61.3691 226.739 62.0178C229.041 62.4807 231.414 62.4398 233.698 61.898C234.716 61.6642 235.685 61.2485 236.559 60.6704C238.953 59.0761 239.438 55.2251 236.698 53.267C235.748 52.5728 234.69 52.0456 233.568 51.7075C231.323 51.0528 229.066 50.4511 226.804 49.8586C224.246 49.1872 221.691 48.5052 219.294 47.3443C217.818 46.6289 216.45 45.7408 215.308 44.542C213.677 42.831 212.783 40.7653 212.551 38.4101C212.102 33.8559 213.499 30.0474 217.076 27.1482C218.421 26.0856 219.926 25.2499 221.534 24.6733C224.794 23.4517 228.164 23.2002 231.594 23.5139C234.375 23.767 237.06 24.402 239.546 25.7387C243.597 27.9211 245.897 31.3098 246.357 35.9504C246.412 36.5036 246.441 37.0598 246.481 37.7297Z" fill="black"/>
<path d="M177.322 25.6205H187.051L206.625 69.8986H197.279C197.279 69.8986 194.456 63.4605 193.006 60.1551H192.179C185.345 60.1551 178.51 60.1642 171.673 60.14C171.044 60.14 170.743 60.34 170.476 60.9159C169.202 63.7182 165.918 69.9668 165.918 69.9668L157.437 69.9152C157.437 69.9152 170.702 40.3743 177.322 25.6205ZM189.46 51.0361L182.363 33.9408C181.465 36.0065 180.661 37.8888 179.852 39.7711C179.042 41.6534 178.235 43.4887 177.457 45.3589C176.678 47.2291 175.792 49.075 175.062 51.0361H189.46Z" fill="black"/>
<path d="M141.309 69.9273H131.653V69.0028C131.653 63.8065 131.656 58.6092 131.662 53.4109C131.671 52.9257 131.541 52.4481 131.287 52.0363C126.23 43.5604 121.176 35.081 116.125 26.598C115.946 26.2948 115.782 25.9917 115.526 25.5462H116.484C119.507 25.5462 122.531 25.5674 125.555 25.5295C126.2 25.5219 126.553 25.728 126.876 26.2873C129.902 31.528 132.945 36.7587 136.007 41.9792C136.185 42.2823 136.369 42.5854 136.606 42.9764C136.769 42.7233 136.905 42.5415 137.008 42.3505C140.131 36.9885 143.246 31.6235 146.356 26.2554C146.679 25.6947 147.014 25.4704 147.661 25.478C150.655 25.5143 153.659 25.4931 156.657 25.4931H157.555C157.405 25.7962 157.302 26.019 157.181 26.2236C154.187 31.2754 151.189 36.3227 148.185 41.3654C146.012 45.0249 143.836 48.6824 141.657 52.3379C141.419 52.7309 141.298 53.185 141.309 53.6458C141.318 58.7411 141.318 63.8358 141.309 68.9301V69.9273Z" fill="black"/>
<path d="M54.6279 25.0294H64.1536V69.3242L54.6698 69.4091L54.6279 25.0294Z" fill="black"/>
<path d="M128.667 11.3783V16.8574H126.146V1.5663H132.198C133.94 1.5663 135.285 1.97132 136.233 2.78134C137.195 3.59137 137.677 4.79876 137.677 6.40353C137.677 7.99301 137.195 9.22333 136.233 10.0945C135.285 10.9504 133.94 11.3783 132.198 11.3783H128.667ZM128.667 9.22333H131.877C132.763 9.22333 133.428 9.09342 133.871 8.8336C134.33 8.57378 134.635 8.23755 134.788 7.82489C134.956 7.39696 135.04 6.95373 135.04 6.49523C135.04 6.02144 134.956 5.57058 134.788 5.14264C134.635 4.7147 134.33 4.37082 133.871 4.111C133.428 3.8359 132.763 3.69835 131.877 3.69835H128.667V9.22333Z" fill="black"/>
<path d="M145.512 17.2013C143.647 17.2013 142.257 16.674 141.34 15.6195C140.438 14.5649 139.987 13.0595 139.987 11.1032C139.987 9.03993 140.453 7.51922 141.385 6.54108C142.333 5.56294 143.701 5.07386 145.489 5.07386C147.369 5.07386 148.767 5.60115 149.684 6.65571C150.601 7.69498 151.06 9.17748 151.06 11.1032C151.06 13.0442 150.578 14.5496 149.616 15.6195C148.653 16.674 147.285 17.2013 145.512 17.2013ZM145.489 15.161C146.651 15.161 147.468 14.7865 147.942 14.0376C148.416 13.2887 148.653 12.3106 148.653 11.1032C148.653 9.78882 148.408 8.79539 147.919 8.12292C147.43 7.43516 146.62 7.09129 145.489 7.09129C144.327 7.09129 143.517 7.45045 143.059 8.16877C142.6 8.87181 142.371 9.84996 142.371 11.1032C142.371 12.3717 142.608 13.3652 143.082 14.0835C143.556 14.8018 144.358 15.161 145.489 15.161Z" fill="black"/>
<path d="M156.03 16.8574L152.202 5.34897H154.769L157.337 14.0147L159.767 5.34897H161.761L164.26 14.1064L166.874 5.34897H169.35L165.521 16.8574H163.229L160.753 8.6502L158.3 16.8574H156.03Z" fill="black"/>
<path d="M176.027 17.2013C174.331 17.2013 172.978 16.6893 171.969 15.6653C170.976 14.626 170.479 13.1283 170.479 11.172C170.479 9.16984 170.945 7.65677 171.878 6.63278C172.825 5.5935 174.14 5.07386 175.821 5.07386C177.059 5.07386 178.06 5.34897 178.824 5.89917C179.588 6.44938 180.138 7.22119 180.475 8.21462C180.826 9.19277 180.994 10.339 180.979 11.6534H172.886C172.963 12.7844 173.299 13.6479 173.895 14.244C174.491 14.8247 175.332 15.1151 176.417 15.1151C177.181 15.1151 177.877 15.0234 178.503 14.84C179.145 14.6413 179.688 14.4197 180.131 14.1752V16.4219C179.581 16.6664 178.969 16.8574 178.297 16.995C177.624 17.1325 176.868 17.2013 176.027 17.2013ZM175.752 7.04543C174.973 7.04543 174.346 7.25176 173.872 7.66442C173.398 8.06179 173.093 8.79539 172.955 9.86524H178.526C178.434 8.8871 178.159 8.17641 177.701 7.73319C177.258 7.27469 176.608 7.04543 175.752 7.04543Z" fill="black"/>
<path d="M183.747 16.8574V6.40353C183.946 6.28126 184.312 6.12078 184.847 5.9221C185.382 5.70813 186.009 5.51709 186.727 5.34897C187.461 5.18085 188.21 5.09679 188.974 5.09679C189.356 5.09679 189.669 5.12736 189.914 5.18849C190.158 5.24963 190.365 5.3184 190.533 5.39482V7.32054C189.845 7.21355 189.096 7.18299 188.286 7.22884C187.476 7.27469 186.765 7.35111 186.154 7.45809V16.8574H183.747Z" fill="black"/>
<path d="M197.229 17.2013C195.532 17.2013 194.18 16.6893 193.171 15.6653C192.177 14.626 191.681 13.1283 191.681 11.172C191.681 9.16984 192.147 7.65677 193.079 6.63278C194.027 5.5935 195.341 5.07386 197.022 5.07386C198.26 5.07386 199.261 5.34897 200.025 5.89917C200.79 6.44938 201.34 7.22119 201.676 8.21462C202.028 9.19277 202.196 10.339 202.18 11.6534H194.088C194.164 12.7844 194.5 13.6479 195.097 14.244C195.693 14.8247 196.533 15.1151 197.618 15.1151C198.383 15.1151 199.078 15.0234 199.705 14.84C200.346 14.6413 200.889 14.4197 201.332 14.1752V16.4219C200.782 16.6664 200.171 16.8574 199.498 16.995C198.826 17.1325 198.069 17.2013 197.229 17.2013ZM196.953 7.04543C196.174 7.04543 195.547 7.25176 195.074 7.66442C194.6 8.06179 194.294 8.79539 194.157 9.86524H199.727C199.636 8.8871 199.361 8.17641 198.902 7.73319C198.459 7.27469 197.809 7.04543 196.953 7.04543Z" fill="black"/>
<path d="M210.038 17.2013C209.335 17.2013 208.647 17.1096 207.974 16.9262C207.302 16.7581 206.691 16.4524 206.14 16.0092C205.606 15.5507 205.17 14.9164 204.834 14.1064C204.513 13.2964 204.352 12.2495 204.352 10.9657C204.352 9.1622 204.795 7.73319 205.682 6.67863C206.568 5.60879 207.913 5.07386 209.717 5.07386C210.068 5.07386 210.519 5.12736 211.069 5.23434C211.62 5.34133 212.132 5.5018 212.605 5.71577V0.534668H214.99V14.4274C214.99 14.9164 214.837 15.3367 214.531 15.6882C214.241 16.0398 213.851 16.3302 213.362 16.5594C212.873 16.7734 212.338 16.9339 211.757 17.0408C211.176 17.1478 210.603 17.2013 210.038 17.2013ZM210.106 15.1151C210.794 15.1151 211.383 15.0311 211.872 14.8629C212.361 14.6948 212.605 14.4732 212.605 14.1981V7.80197C212.208 7.57272 211.78 7.4046 211.322 7.29761C210.878 7.19063 210.458 7.13714 210.061 7.13714C208.93 7.13714 208.104 7.47337 207.585 8.14585C207.065 8.80304 206.805 9.75826 206.805 11.0115C206.805 11.7757 206.897 12.4711 207.08 13.0977C207.264 13.709 207.592 14.1981 208.066 14.5649C208.555 14.9317 209.235 15.1151 210.106 15.1151Z" fill="black"/>
<path d="M229.756 17.2013C228.931 17.2013 228.144 17.1249 227.395 16.9721C226.661 16.8345 226.058 16.5823 225.584 16.2155C225.125 15.8334 224.896 15.2909 224.896 14.5878V0.740995H227.28V5.80747C227.739 5.57822 228.251 5.40246 228.816 5.28019C229.382 5.15792 229.855 5.09679 230.238 5.09679C231.98 5.09679 233.287 5.61643 234.158 6.65571C235.029 7.69498 235.464 9.13927 235.464 10.9886C235.464 12.2418 235.296 13.2735 234.96 14.0835C234.639 14.8935 234.204 15.5278 233.653 15.9863C233.118 16.4295 232.507 16.7428 231.819 16.9262C231.147 17.1096 230.459 17.2013 229.756 17.2013ZM229.641 15.1151C230.543 15.1151 231.239 14.9317 231.728 14.5649C232.217 14.1981 232.553 13.709 232.736 13.0977C232.92 12.4864 233.011 11.8139 233.011 11.0803C233.011 9.81175 232.752 8.84124 232.232 8.16877C231.712 7.48101 230.925 7.13714 229.871 7.13714C229.473 7.13714 229.038 7.19063 228.564 7.29761C228.09 7.4046 227.662 7.57272 227.28 7.80197V13.9918C227.28 14.2975 227.402 14.5343 227.647 14.7025C227.892 14.8553 228.19 14.9623 228.541 15.0234C228.908 15.0846 229.275 15.1151 229.641 15.1151Z" fill="black"/>
<path d="M239.289 21.3049C238.998 21.3049 238.715 21.2744 238.44 21.2132C238.18 21.1674 237.959 21.1062 237.775 21.0298V18.9666C237.944 19.0277 238.119 19.0812 238.303 19.127C238.501 19.1729 238.708 19.1958 238.922 19.1958C239.533 19.1958 240.007 18.9895 240.343 18.5768C240.695 18.1642 240.977 17.5758 241.191 16.8116L236.515 5.34897H239.243L242.383 13.9459L245.501 5.34897H248L243.255 17.5681C242.873 18.5463 242.46 19.3028 242.017 19.8377C241.573 20.3879 241.115 20.77 240.641 20.984C240.183 21.1979 239.732 21.3049 239.289 21.3049Z" fill="black"/>
</svg>
